<svg width="40" height="40" viewBox="0 0 40 40" fill="none" xmlns="http://www.w3.org/2000/svg"><path d="M39.265 31.333l-9.127-8.299a2.247 2.247 0 00-3.124.097l-5.373 5.526c-1.293-.247-3.893-1.058-6.57-3.728-2.676-2.678-3.487-5.285-3.727-6.57l5.521-5.375a2.246 2.246 0 00.097-3.123L8.665.736A2.245 2.245 0 005.542.54L.67 4.72c-.388.39-.62.908-.651 1.457-.034.562-.676 13.859 9.634 24.173C18.648 39.343 29.915 40 33.018 40c.454 0 .732-.014.806-.018a2.227 2.227 0 001.455-.653l4.177-4.875a2.238 2.238 0 00-.191-3.121z" fill="#000"/></svg>