<svg width="50" height="50" viewBox="0 0 50 50" fill="none" xmlns="http://www.w3.org/2000/svg"><path fill-rule="evenodd" clip-rule="evenodd" d="M0 25a25 25 0 1050 0 25 25 0 00-50 0zm45.714 0a20.714 20.714 0 11-41.428 0 20.714 20.714 0 0141.428 0z" fill="#000"/><path fill-rule="evenodd" clip-rule="evenodd" d="M14.286 25c0 12.92 4.26 23.572 10.714 23.572 6.454 0 10.714-10.652 10.714-23.572S31.454 1.429 25 1.429C18.546 1.429 14.286 12.08 14.286 25zm17.142 0c0 10.749-3.414 19.286-6.428 19.286S18.57 35.749 18.57 25 21.986 5.714 25 5.714c3.014 0 6.428 8.537 6.428 19.286z" fill="#000"/><path d="M6.72 12.049L9.594 8.87c.286.258.598.515.929.763 3.631 2.72 9.429 4.4 15.757 4.4 5.403 0 10.434-1.22 14.089-3.308a15.13 15.13 0 002.34-1.629l2.783 3.26a19.233 19.233 0 01-2.995 2.086c-4.331 2.48-10.097 3.874-16.217 3.874-7.206 0-13.9-1.937-18.328-5.254a17.328 17.328 0 01-1.232-1.014zm0 25.948l2.874 3.177c.286-.26.598-.514.929-.763 3.631-2.72 9.429-4.4 15.757-4.4 5.403 0 10.434 1.22 14.089 3.309.88.503 1.663 1.049 2.34 1.629l2.783-3.26a19.546 19.546 0 00-2.995-2.086c-4.331-2.48-10.097-3.874-16.217-3.874-7.206 0-13.9 1.937-18.328 5.254-.426.319-.837.657-1.232 1.014zM1.43 27.143v-4.286h47.143v4.286H1.429z" fill="#000"/></svg>