<svg width="567" height="510" viewBox="0 0 567 510" fill="none" xmlns="http://www.w3.org/2000/svg"><path d="M6.96 49.16c1.387 2.08 3.147 3.627 5.28 4.64 2.187.96 4.427 1.44 6.72 1.44a14.5 14.5 0 003.92-.56 12.091 12.091 0 003.6-1.84 9.61 9.61 0 002.72-2.96c.693-1.173 1.04-2.533 1.04-4.08 0-2.187-.693-3.84-2.08-4.96-1.387-1.173-3.12-2.133-5.2-2.88-2.027-.8-4.267-1.547-6.72-2.24-2.4-.747-4.64-1.76-6.72-3.04-2.027-1.28-3.733-2.987-5.12-5.12-1.387-2.187-2.08-5.12-2.08-8.8 0-1.653.347-3.413 1.04-5.28.747-1.867 1.893-3.573 3.44-5.12 1.547-1.547 3.52-2.827 5.92-3.84 2.453-1.067 5.387-1.6 8.8-1.6 3.093 0 6.053.427 8.88 1.28 2.827.853 5.307 2.587 7.44 5.2l-6.24 5.68c-.96-1.493-2.32-2.693-4.08-3.6-1.76-.907-3.76-1.36-6-1.36-2.133 0-3.92.293-5.36.88-1.387.533-2.507 1.253-3.36 2.16-.853.853-1.467 1.787-1.84 2.8-.32 1.013-.48 1.947-.48 2.8 0 2.4.693 4.24 2.08 5.52 1.387 1.28 3.093 2.32 5.12 3.12 2.08.8 4.32 1.52 6.72 2.16 2.453.64 4.693 1.547 6.72 2.72 2.08 1.12 3.813 2.667 5.2 4.64 1.387 1.92 2.08 4.587 2.08 8 0 2.72-.533 5.173-1.6 7.36-1.013 2.187-2.4 4.027-4.16 5.52-1.76 1.493-3.84 2.64-6.24 3.44-2.4.8-4.96 1.2-7.68 1.2-3.627 0-7.067-.64-10.32-1.92-3.253-1.28-5.84-3.253-7.76-5.92l6.32-5.44zm46.373-4.48c0 1.653.347 3.173 1.04 4.56a11.945 11.945 0 002.88 3.44c1.173.96 2.533 1.707 4.08 2.24 1.547.533 3.147.8 4.8.8 2.24 0 4.187-.507 5.84-1.52 1.653-1.067 3.174-2.453 4.56-4.16l5.44 4.16c-4 5.173-9.6 7.76-16.8 7.76-2.986 0-5.706-.507-8.16-1.52-2.4-1.013-4.453-2.4-6.16-4.16-1.653-1.813-2.933-3.92-3.84-6.32-.907-2.453-1.36-5.093-1.36-7.92s.48-5.44 1.44-7.84c1.013-2.453 2.373-4.56 4.08-6.32 1.76-1.813 3.84-3.227 6.24-4.24 2.4-1.013 5.014-1.52 7.84-1.52 3.36 0 6.187.587 8.48 1.76 2.347 1.173 4.267 2.72 5.76 4.64 1.494 1.867 2.56 4 3.2 6.4a25.278 25.278 0 011.04 7.2v2.56h-30.4zm22.72-5.76c-.053-1.6-.32-3.067-.8-4.4-.427-1.333-1.093-2.48-2-3.44-.906-1.013-2.053-1.787-3.44-2.32-1.333-.587-2.907-.88-4.72-.88-1.76 0-3.387.347-4.88 1.04-1.44.64-2.666 1.493-3.68 2.56a12.504 12.504 0 00-2.4 3.6c-.533 1.28-.8 2.56-.8 3.84h22.72zm24.053-15.84v43.36c0 .96-.08 2.213-.24 3.76-.106 1.6-.533 3.12-1.28 4.56-.693 1.493-1.84 2.773-3.44 3.84-1.546 1.067-3.76 1.6-6.64 1.6-.8 0-1.573-.053-2.32-.16a11.33 11.33 0 01-2.32-.56l.8-6.64c.427.16.907.293 1.44.4.534.16 1.04.24 1.52.24 1.974 0 3.334-.64 4.08-1.92.8-1.227 1.2-3.04 1.2-5.44V23.08h7.2zm-8.88-13.6c0-1.44.507-2.667 1.52-3.68 1.067-1.067 2.32-1.6 3.76-1.6s2.667.533 3.68 1.6c1.067 1.013 1.6 2.24 1.6 3.68s-.533 2.693-1.6 3.76c-1.013 1.013-2.24 1.52-3.68 1.52s-2.693-.507-3.76-1.52c-1.013-1.067-1.52-2.32-1.52-3.76zm20.499 18.24c2.027-1.867 4.373-3.253 7.04-4.16 2.667-.96 5.333-1.44 8-1.44 2.773 0 5.147.347 7.12 1.04 2.027.693 3.68 1.627 4.96 2.8 1.28 1.173 2.213 2.533 2.8 4.08.64 1.493.96 3.067.96 4.72v19.36c0 1.333.027 2.56.08 3.68.053 1.12.133 2.187.24 3.2h-6.4a69.33 69.33 0 01-.24-5.76h-.16c-1.6 2.453-3.493 4.187-5.68 5.2s-4.72 1.52-7.6 1.52c-1.76 0-3.44-.24-5.04-.72s-3.013-1.2-4.24-2.16a10.636 10.636 0 01-2.8-3.52c-.693-1.44-1.04-3.093-1.04-4.96 0-2.453.533-4.507 1.6-6.16 1.12-1.653 2.613-2.987 4.48-4 1.92-1.067 4.133-1.813 6.64-2.24 2.56-.48 5.28-.72 8.16-.72h5.28v-1.6c0-.96-.187-1.92-.56-2.88a7.353 7.353 0 00-1.68-2.56c-.747-.8-1.68-1.413-2.8-1.84-1.12-.48-2.453-.72-4-.72-1.387 0-2.613.133-3.68.4a14.488 14.488 0 00-2.8 1.04c-.853.373-1.627.827-2.32 1.36-.693.533-1.36 1.04-2 1.52l-4.32-4.48zm20.32 15.04c-1.707 0-3.467.107-5.28.32-1.76.16-3.387.507-4.88 1.04-1.44.533-2.64 1.28-3.6 2.24-.907.96-1.36 2.187-1.36 3.68 0 2.187.72 3.76 2.16 4.72 1.493.96 3.493 1.44 6 1.44 1.973 0 3.653-.32 5.04-.96 1.387-.693 2.507-1.573 3.36-2.64a10.13 10.13 0 001.84-3.52c.373-1.333.56-2.64.56-3.92v-2.4h-3.84zM153.609.52h7.2V61h-7.2V.52zm42.765 3.84h19.68c2.453 0 4.72.293 6.8.88 2.133.587 3.946 1.467 5.44 2.64 1.546 1.12 2.746 2.587 3.6 4.4.906 1.76 1.36 3.84 1.36 6.24 0 3.253-.907 5.92-2.72 8-1.814 2.027-4.16 3.52-7.04 4.48v.16c1.706.107 3.306.56 4.8 1.36a11.842 11.842 0 013.84 3.04c1.12 1.227 2 2.667 2.64 4.32.64 1.653.96 3.44.96 5.36 0 2.56-.534 4.827-1.6 6.8-1.014 1.92-2.427 3.547-4.24 4.88-1.814 1.333-3.92 2.347-6.32 3.04-2.4.693-4.987 1.04-7.76 1.04h-19.44V4.36zm7.68 23.52h10.48c1.44 0 2.8-.133 4.08-.4 1.28-.32 2.4-.827 3.36-1.52a7.16 7.16 0 002.24-2.64c.586-1.067.88-2.373.88-3.92 0-2.24-.72-4.187-2.16-5.84-1.44-1.653-3.707-2.48-6.8-2.48h-12.08v16.8zm0 26.4h11.28c1.173 0 2.453-.107 3.84-.32a12.81 12.81 0 004-1.44 10.315 10.315 0 003.12-2.96c.853-1.227 1.28-2.853 1.28-4.88 0-3.36-1.094-5.867-3.28-7.52-2.187-1.707-5.147-2.56-8.88-2.56h-11.36v19.68zm46.71-12.24c0 1.92.294 3.707.88 5.36.587 1.6 1.414 2.987 2.48 4.16 1.067 1.12 2.374 2.027 3.92 2.72 1.547.64 3.28.96 5.2.96 1.92 0 3.654-.32 5.2-.96 1.547-.693 2.854-1.6 3.92-2.72 1.067-1.173 1.894-2.56 2.48-4.16.587-1.653.88-3.44.88-5.36 0-1.92-.293-3.68-.88-5.28-.586-1.653-1.413-3.04-2.48-4.16-1.066-1.173-2.373-2.08-3.92-2.72-1.546-.693-3.28-1.04-5.2-1.04-1.92 0-3.653.347-5.2 1.04-1.546.64-2.853 1.547-3.92 2.72-1.066 1.12-1.893 2.507-2.48 4.16-.586 1.6-.88 3.36-.88 5.28zm-7.68 0c0-2.773.507-5.36 1.52-7.76a20.806 20.806 0 014.32-6.32c1.814-1.813 3.947-3.227 6.4-4.24 2.454-1.067 5.094-1.6 7.92-1.6 2.827 0 5.467.533 7.92 1.6 2.454 1.013 4.587 2.427 6.4 4.24a19.647 19.647 0 014.24 6.32c1.067 2.4 1.6 4.987 1.6 7.76 0 2.773-.533 5.387-1.6 7.84a19.647 19.647 0 01-4.24 6.32c-1.813 1.76-3.946 3.173-6.4 4.24-2.453 1.013-5.093 1.52-7.92 1.52-2.826 0-5.466-.507-7.92-1.52-2.453-1.067-4.586-2.48-6.4-4.24a20.806 20.806 0 01-4.32-6.32c-1.013-2.453-1.52-5.067-1.52-7.84zM292.424.52h7.2v28.4h.16c.907-2.027 2.48-3.653 4.72-4.88 2.24-1.28 4.827-1.92 7.76-1.92 1.814 0 3.547.293 5.2.88 1.707.533 3.174 1.387 4.4 2.56 1.28 1.173 2.294 2.693 3.04 4.56.747 1.813 1.12 3.973 1.12 6.48V61h-7.2V38.6c0-1.76-.24-3.253-.72-4.48-.48-1.28-1.12-2.293-1.92-3.04-.8-.8-1.733-1.36-2.8-1.68a9.182 9.182 0 00-3.2-.56c-1.493 0-2.88.24-4.16.72-1.28.48-2.4 1.253-3.36 2.32-.96 1.013-1.706 2.32-2.24 3.92-.533 1.6-.8 3.493-.8 5.68V61h-7.2V.52zm44.454 22.56h7.2v5.84h.16a9.683 9.683 0 011.92-2.72c.8-.853 1.68-1.573 2.64-2.16a13.7 13.7 0 013.28-1.36 11.55 11.55 0 013.52-.56c1.173 0 2.24.16 3.2.48l-.32 7.76a20.99 20.99 0 00-1.76-.4 9.828 9.828 0 00-1.761-.16c-3.519 0-6.213.987-8.079 2.96-1.867 1.973-2.8 5.04-2.8 9.2V61h-7.2V23.08zm29.769 4.64c2.027-1.867 4.373-3.253 7.04-4.16 2.667-.96 5.333-1.44 8-1.44 2.773 0 5.147.347 7.12 1.04 2.027.693 3.68 1.627 4.96 2.8 1.28 1.173 2.213 2.533 2.8 4.08.64 1.493.96 3.067.96 4.72v19.36c0 1.333.027 2.56.08 3.68.053 1.12.133 2.187.24 3.2h-6.4a69.33 69.33 0 01-.24-5.76h-.16c-1.6 2.453-3.493 4.187-5.68 5.2s-4.72 1.52-7.6 1.52c-1.76 0-3.44-.24-5.04-.72s-3.013-1.2-4.24-2.16a10.636 10.636 0 01-2.8-3.52c-.693-1.44-1.04-3.093-1.04-4.96 0-2.453.533-4.507 1.6-6.16 1.12-1.653 2.613-2.987 4.48-4 1.92-1.067 4.133-1.813 6.64-2.24 2.56-.48 5.28-.72 8.16-.72h5.28v-1.6c0-.96-.187-1.92-.56-2.88a7.353 7.353 0 00-1.68-2.56c-.747-.8-1.68-1.413-2.8-1.84-1.12-.48-2.453-.72-4-.72-1.387 0-2.613.133-3.68.4a14.488 14.488 0 00-2.8 1.04c-.853.373-1.627.827-2.32 1.36-.693.533-1.36 1.04-2 1.52l-4.32-4.48zm20.32 15.04c-1.707 0-3.467.107-5.28.32-1.76.16-3.387.507-4.88 1.04-1.44.533-2.64 1.28-3.6 2.24-.907.96-1.36 2.187-1.36 3.68 0 2.187.72 3.76 2.16 4.72 1.493.96 3.493 1.44 6 1.44 1.973 0 3.653-.32 5.04-.96 1.387-.693 2.507-1.573 3.36-2.64a10.13 10.13 0 001.84-3.52c.373-1.333.56-2.64.56-3.92v-2.4h-3.84zM37.72 109.7c-1-1.56-2.36-2.76-4.08-3.6-1.72-.84-3.56-1.26-5.52-1.26-2.4 0-4.64.46-6.72 1.38-2.04.88-3.88 2.1-5.52 3.66-1.6 1.56-2.92 3.4-3.96 5.52-1.04 2.08-1.74 4.32-2.1 6.72-.32 2.24-.26 4.36.18 6.36s1.24 3.76 2.4 5.28c1.16 1.52 2.66 2.72 4.5 3.6 1.84.88 4 1.32 6.48 1.32 2.44 0 4.64-.5 6.6-1.5 2-1 3.76-2.4 5.28-4.2l4.32 3.66c-.36.44-1 1.08-1.92 1.92-.92.8-2.1 1.62-3.54 2.46-1.44.8-3.14 1.5-5.1 2.1-1.92.64-4.1.96-6.54.96-3.36 0-6.3-.64-8.82-1.92-2.52-1.28-4.58-2.96-6.18-5.04a18.72 18.72 0 01-3.36-7.02c-.64-2.64-.78-5.3-.42-7.98.48-3.28 1.44-6.3 2.88-9.06 1.48-2.8 3.34-5.2 5.58-7.2 2.24-2.04 4.8-3.62 7.68-4.74s5.96-1.68 9.24-1.68c2.8 0 5.46.54 7.98 1.62 2.56 1.04 4.54 2.7 5.94 4.98l-5.28 3.66zm12.966 19.08c-.2 1.44-.18 2.78.06 4.02.28 1.2.76 2.24 1.44 3.12.68.84 1.56 1.52 2.64 2.04 1.12.48 2.4.72 3.84.72s2.76-.24 3.96-.72c1.24-.52 2.32-1.2 3.24-2.04.92-.88 1.68-1.92 2.28-3.12.64-1.24 1.06-2.58 1.26-4.02.2-1.44.16-2.76-.12-3.96-.24-1.24-.72-2.28-1.44-3.12-.68-.88-1.56-1.56-2.64-2.04-1.08-.52-2.34-.78-3.78-.78s-2.78.26-4.02.78c-1.2.48-2.28 1.16-3.24 2.04-.92.84-1.68 1.88-2.28 3.12-.6 1.2-1 2.52-1.2 3.96zm-5.76 0c.28-2.08.94-4.02 1.98-5.82 1.04-1.8 2.34-3.38 3.9-4.74a17.93 17.93 0 015.22-3.18c1.96-.8 4-1.2 6.12-1.2s4.04.4 5.76 1.2c1.72.76 3.16 1.82 4.32 3.18 1.2 1.36 2.06 2.94 2.58 4.74.52 1.8.64 3.74.36 5.82-.32 2.08-1 4.04-2.04 5.88-1 1.8-2.28 3.38-3.84 4.74a19.549 19.549 0 01-5.28 3.18c-1.92.76-3.94 1.14-6.06 1.14-2.12 0-4.06-.38-5.82-1.14-1.72-.8-3.16-1.86-4.32-3.18-1.16-1.36-2.02-2.94-2.58-4.74-.52-1.84-.62-3.8-.3-5.88zM94.411 131h-14.76l.66-5.04h14.76l-.66 5.04zm11.844-30.48h26.7l-.78 5.4h-20.94l-1.86 13.32h19.5l-.72 5.4h-19.5l-2.58 18.36h-5.76l5.94-42.48zm33.494 28.26c-.2 1.44-.18 2.78.06 4.02.28 1.2.76 2.24 1.44 3.12.68.84 1.56 1.52 2.64 2.04 1.12.48 2.4.72 3.84.72s2.76-.24 3.96-.72c1.24-.52 2.32-1.2 3.24-2.04.92-.88 1.68-1.92 2.28-3.12.64-1.24 1.06-2.58 1.26-4.02.2-1.44.16-2.76-.12-3.96-.24-1.24-.72-2.28-1.44-3.12-.68-.88-1.56-1.56-2.64-2.04-1.08-.52-2.34-.78-3.78-.78s-2.78.26-4.02.78c-1.2.48-2.28 1.16-3.24 2.04-.92.84-1.68 1.88-2.28 3.12-.6 1.2-1 2.52-1.2 3.96zm-5.76 0c.28-2.08.94-4.02 1.98-5.82 1.04-1.8 2.34-3.38 3.9-4.74a17.93 17.93 0 015.22-3.18c1.96-.8 4-1.2 6.12-1.2s4.04.4 5.76 1.2c1.72.76 3.16 1.82 4.32 3.18 1.2 1.36 2.06 2.94 2.58 4.74.52 1.8.64 3.74.36 5.82-.32 2.08-1 4.04-2.04 5.88-1 1.8-2.28 3.38-3.84 4.74a19.549 19.549 0 01-5.28 3.18c-1.92.76-3.94 1.14-6.06 1.14-2.12 0-4.06-.38-5.82-1.14-1.72-.8-3.16-1.86-4.32-3.18-1.16-1.36-2.02-2.94-2.58-4.74-.52-1.84-.62-3.8-.3-5.88zM194.214 143h-5.4l.6-4.38h-.12c-.92 1.52-2.28 2.76-4.08 3.72-1.8.92-3.8 1.38-6 1.38-1.4 0-2.7-.22-3.9-.66a7.44 7.44 0 01-3-1.92c-.8-.88-1.38-2-1.74-3.36-.36-1.4-.42-3.04-.18-4.92l2.58-18.3h5.4l-2.34 16.8c-.2 1.32-.2 2.46 0 3.42.24.92.62 1.68 1.14 2.28.52.56 1.16.98 1.92 1.26.76.24 1.56.36 2.4.36 2.24 0 4.22-.74 5.94-2.22 1.72-1.52 2.82-3.94 3.3-7.26l2.04-14.64h5.4l-3.96 28.44zm12.099-28.44h5.4l-.6 4.38h.12c.92-1.52 2.28-2.74 4.08-3.66 1.8-.96 3.8-1.44 6-1.44 1.36 0 2.64.22 3.84.66 1.2.4 2.2 1.04 3 1.92.84.88 1.44 2.02 1.8 3.42.36 1.36.4 2.98.12 4.86l-2.52 18.3h-5.4l2.34-16.8c.16-1.32.12-2.44-.12-3.36-.2-.96-.56-1.72-1.08-2.28-.48-.6-1.1-1.02-1.86-1.26-.76-.28-1.56-.42-2.4-.42-1.12 0-2.2.18-3.24.54-1 .36-1.92.94-2.76 1.74-.8.76-1.48 1.74-2.04 2.94s-.96 2.62-1.2 4.26l-2.04 14.64h-5.4l3.96-28.44zm57.88 28.44h-5.4l.54-4.08h-.12c-1.28 1.52-2.88 2.7-4.8 3.54-1.92.84-3.84 1.26-5.76 1.26-2.2 0-4.14-.38-5.82-1.14-1.68-.76-3.06-1.82-4.14-3.18-1.04-1.36-1.78-2.94-2.22-4.74-.44-1.8-.5-3.76-.18-5.88.28-2.12.9-4.08 1.86-5.88.96-1.84 2.16-3.42 3.6-4.74 1.44-1.36 3.1-2.42 4.98-3.18 1.88-.76 3.92-1.14 6.12-1.14 2.04 0 3.88.44 5.52 1.32 1.68.84 2.92 2 3.72 3.48h.12l2.94-21h5.4l-6.36 45.36zm-14.16-4.32c1.44 0 2.76-.24 3.96-.72 1.24-.52 2.32-1.2 3.24-2.04.92-.88 1.68-1.92 2.28-3.12.64-1.24 1.06-2.58 1.26-4.02.2-1.44.16-2.76-.12-3.96-.24-1.24-.72-2.28-1.44-3.12-.68-.88-1.56-1.56-2.64-2.04-1.08-.52-2.34-.78-3.78-.78s-2.78.26-4.02.78c-1.2.48-2.28 1.16-3.24 2.04-.92.84-1.68 1.88-2.28 3.12-.6 1.2-1 2.52-1.2 3.96-.2 1.44-.18 2.78.06 4.02.28 1.2.76 2.24 1.44 3.12.68.84 1.56 1.52 2.64 2.04 1.12.48 2.4.72 3.84.72zm28.1-7.92c-.16 1.24-.04 2.38.36 3.42.4 1 .98 1.86 1.74 2.58.8.72 1.74 1.28 2.82 1.68 1.12.4 2.3.6 3.54.6 1.68 0 3.18-.38 4.5-1.14 1.36-.8 2.66-1.84 3.9-3.12l3.6 3.12c-3.52 3.88-7.98 5.82-13.38 5.82-2.24 0-4.22-.38-5.94-1.14-1.68-.76-3.06-1.8-4.14-3.12-1.08-1.36-1.84-2.94-2.28-4.74-.44-1.84-.5-3.82-.18-5.94.28-2.12.92-4.08 1.92-5.88 1-1.84 2.24-3.42 3.72-4.74 1.52-1.36 3.22-2.42 5.1-3.18 1.92-.76 3.94-1.14 6.06-1.14 2.52 0 4.58.44 6.18 1.32 1.64.88 2.92 2.04 3.84 3.48.92 1.4 1.5 3 1.74 4.8.24 1.76.24 3.56 0 5.4l-.3 1.92h-22.8zm17.64-4.32c.12-1.2.08-2.3-.12-3.3s-.58-1.86-1.14-2.58c-.56-.76-1.32-1.34-2.28-1.74-.96-.44-2.12-.66-3.48-.66-1.32 0-2.56.26-3.72.78-1.16.48-2.2 1.12-3.12 1.92-.88.8-1.6 1.7-2.16 2.7-.56.96-.9 1.92-1.02 2.88h17.04zm13.9-11.88h5.4l-.6 4.38h.12c.92-1.52 2.24-2.74 3.96-3.66 1.72-.96 3.48-1.44 5.28-1.44.88 0 1.66.12 2.34.36l-1.08 5.82c-.44-.12-.88-.22-1.32-.3-.4-.08-.82-.12-1.26-.12-2.64 0-4.76.74-6.36 2.22-1.6 1.48-2.62 3.78-3.06 6.9l-1.98 14.28h-5.4l3.96-28.44zM59.323 278.216h11.856V266.36h4.056v11.856H87.09v4.056H75.235v11.856h-4.056v-11.856H59.323v-4.056zm48.672 3.536h-.208c-1.144.555-2.496.832-4.056.832-1.317 0-2.652-.225-4.004-.676a11.153 11.153 0 01-3.692-2.08c-1.074-.971-1.958-2.184-2.652-3.64-.693-1.491-1.04-3.241-1.04-5.252 0-2.011.33-3.779.988-5.304.694-1.56 1.612-2.86 2.756-3.9a11.3 11.3 0 014.004-2.34c1.526-.555 3.155-.832 4.888-.832 1.734 0 3.363.277 4.888.832 1.526.555 2.86 1.352 4.004 2.392a11.27 11.27 0 012.704 3.744c.694 1.456 1.04 3.085 1.04 4.888 0 1.144-.086 2.184-.26 3.12a14.205 14.205 0 01-.78 2.704 19.906 19.906 0 01-1.144 2.496c-.45.832-.953 1.681-1.508 2.548L104.615 296h-5.876l9.256-14.248zm4.628-11.18c0-1.109-.19-2.132-.572-3.068a6.221 6.221 0 00-1.56-2.392 6.774 6.774 0 00-2.392-1.612c-.936-.381-1.976-.572-3.12-.572-1.144 0-2.184.191-3.12.572a7.325 7.325 0 00-2.444 1.612c-.658.659-1.178 1.456-1.56 2.392-.346.936-.52 1.959-.52 3.068s.174 2.132.52 3.068a7.757 7.757 0 001.56 2.444 7.748 7.748 0 002.444 1.56c.936.381 1.976.572 3.12.572 1.144 0 2.184-.191 3.12-.572.936-.381 1.734-.901 2.392-1.56a6.687 6.687 0 001.56-2.444c.382-.936.572-1.959.572-3.068zm20.835-5.668l-6.76 6.24-2.912-3.484 10.244-8.476h4.42V296h-4.992v-31.096zm46.799 16.848h-.208c-1.144.555-2.496.832-4.056.832-1.317 0-2.652-.225-4.004-.676a11.149 11.149 0 01-3.692-2.08c-1.075-.971-1.959-2.184-2.652-3.64-.693-1.491-1.04-3.241-1.04-5.252 0-2.011.329-3.779.988-5.304.693-1.56 1.612-2.86 2.756-3.9a11.3 11.3 0 014.004-2.34c1.525-.555 3.155-.832 4.888-.832s3.363.277 4.888.832c1.525.555 2.86 1.352 4.004 2.392a11.284 11.284 0 012.704 3.744c.693 1.456 1.04 3.085 1.04 4.888 0 1.144-.087 2.184-.26 3.12a14.205 14.205 0 01-.78 2.704 19.906 19.906 0 01-1.144 2.496 40.765 40.765 0 01-1.508 2.548L176.877 296h-5.876l9.256-14.248zm4.628-11.18c0-1.109-.191-2.132-.572-3.068a6.244 6.244 0 00-1.56-2.392 6.783 6.783 0 00-2.392-1.612c-.936-.381-1.976-.572-3.12-.572-1.144 0-2.184.191-3.12.572a7.32 7.32 0 00-2.444 1.612c-.659.659-1.179 1.456-1.56 2.392-.347.936-.52 1.959-.52 3.068s.173 2.132.52 3.068a7.743 7.743 0 001.56 2.444 7.743 7.743 0 002.444 1.56c.936.381 1.976.572 3.12.572 1.144 0 2.184-.191 3.12-.572.936-.381 1.733-.901 2.392-1.56a6.713 6.713 0 001.56-2.444c.381-.936.572-1.959.572-3.068zm31.287-6.708h-14.924l-.156 9.204a6.43 6.43 0 011.04-.312c.45-.104.901-.191 1.352-.26.485-.069.953-.121 1.404-.156.45-.035.832-.052 1.144-.052 1.733 0 3.293.295 4.68.884 1.421.589 2.634 1.421 3.64 2.496 1.005 1.075 1.768 2.357 2.288 3.848.554 1.491.832 3.137.832 4.94 0 1.837-.347 3.501-1.04 4.992a11.368 11.368 0 01-2.756 3.848 12.674 12.674 0 01-4.108 2.496c-1.56.555-3.242.832-5.044.832-2.496 0-4.75-.641-6.76-1.924-2.011-1.283-3.45-3.12-4.316-5.512l5.044-1.716c.658 1.699 1.542 2.929 2.652 3.692 1.109.728 2.496 1.092 4.16 1.092.97 0 1.889-.173 2.756-.52.901-.347 1.664-.832 2.288-1.456.658-.659 1.178-1.456 1.56-2.392.381-.936.572-1.993.572-3.172 0-2.704-.832-4.715-2.496-6.032-1.63-1.352-3.762-2.028-6.396-2.028-.936 0-2.132.173-3.588.52-1.422.312-2.756.78-4.004 1.404l.416-19.396h19.76v4.68zm18.858 32.76c-1.664 0-3.241-.243-4.732-.728-1.456-.52-2.721-1.265-3.796-2.236-1.074-.971-1.924-2.149-2.548-3.536-.624-1.387-.936-2.947-.936-4.68 0-1.144.174-2.201.52-3.172a9.656 9.656 0 011.508-2.6 8.446 8.446 0 012.184-1.976 10.208 10.208 0 012.808-1.248v-.156c-.693-.173-1.386-.485-2.08-.936a7.962 7.962 0 01-1.872-1.716c-.52-.693-.953-1.525-1.3-2.496-.346-1.005-.52-2.149-.52-3.432 0-1.387.278-2.635.832-3.744a9.154 9.154 0 012.34-2.912 10.883 10.883 0 013.432-1.82 12.756 12.756 0 014.16-.676c1.456 0 2.826.225 4.108.676 1.318.416 2.462 1.023 3.432 1.82a8.272 8.272 0 012.34 2.912c.59 1.109.884 2.357.884 3.744 0 1.283-.173 2.427-.52 3.432-.346.971-.797 1.803-1.352 2.496a7.114 7.114 0 01-1.82 1.716c-.693.451-1.386.763-2.08.936v.156a9.447 9.447 0 012.756 1.248 8.124 8.124 0 012.236 1.976 8.663 8.663 0 011.456 2.6c.382.971.572 2.028.572 3.172 0 1.733-.312 3.293-.936 4.68-.624 1.387-1.473 2.565-2.548 3.536-1.074.971-2.357 1.716-3.848 2.236-1.456.485-3.016.728-4.68.728zm-5.772-28.184c0 .728.122 1.439.364 2.132a6.5 6.5 0 001.144 1.872c.486.52 1.075.953 1.768 1.3.728.347 1.56.52 2.496.52.971 0 1.803-.156 2.496-.468.728-.347 1.335-.78 1.82-1.3a5.638 5.638 0 001.092-1.872 6.552 6.552 0 00.364-2.184c0-1.699-.537-3.085-1.612-4.16-1.04-1.109-2.426-1.664-4.16-1.664-1.594 0-2.964.537-4.108 1.612-1.109 1.075-1.664 2.479-1.664 4.212zm5.772 23.816c2.08 0 3.762-.624 5.044-1.872 1.318-1.283 1.976-2.929 1.976-4.94 0-1.109-.19-2.08-.572-2.912-.346-.867-.849-1.577-1.508-2.132a5.763 5.763 0 00-2.236-1.3 7.639 7.639 0 00-2.704-.468c-2.045.035-3.726.693-5.044 1.976-1.317 1.248-1.976 2.86-1.976 4.836 0 1.075.191 2.045.572 2.912a6.789 6.789 0 001.508 2.132 7.563 7.563 0 002.236 1.3 7.924 7.924 0 002.704.468zm34.407-28.704h-17.784v-4.368h23.14v4.264L260.129 296h-5.616l14.924-32.448zm10.694 14.04c0-1.352.07-2.756.208-4.212.139-1.456.382-2.877.728-4.264a25.68 25.68 0 011.456-4.056c.624-1.283 1.404-2.392 2.34-3.328a10.8 10.8 0 013.38-2.288c1.318-.589 2.843-.884 4.576-.884 1.734 0 3.242.295 4.524.884 1.318.555 2.444 1.317 3.38 2.288a10.868 10.868 0 012.34 3.328 20.137 20.137 0 011.456 4.056c.382 1.387.642 2.808.78 4.264.139 1.456.208 2.86.208 4.212 0 1.941-.173 4.021-.52 6.24-.346 2.219-.988 4.281-1.924 6.188a12.961 12.961 0 01-3.9 4.732c-1.629 1.248-3.744 1.872-6.344 1.872s-4.732-.624-6.396-1.872c-1.629-1.248-2.912-2.825-3.848-4.732-.936-1.907-1.577-3.969-1.924-6.188-.346-2.219-.52-4.299-.52-6.24zm4.992 0c0 1.213.07 2.652.208 4.316.174 1.664.52 3.276 1.04 4.836.52 1.525 1.283 2.825 2.288 3.9 1.04 1.075 2.427 1.612 4.16 1.612 1.734 0 3.103-.537 4.108-1.612 1.04-1.075 1.82-2.375 2.34-3.9.52-1.56.85-3.172.988-4.836.174-1.664.26-3.103.26-4.316 0-.832-.034-1.768-.104-2.808a20.326 20.326 0 00-.364-3.224 18.385 18.385 0 00-.78-3.172c-.346-1.04-.814-1.959-1.404-2.756a6.275 6.275 0 00-2.08-1.976c-.832-.485-1.82-.728-2.964-.728s-2.132.243-2.964.728a6.8 6.8 0 00-2.132 1.976c-.554.797-1.005 1.716-1.352 2.756a22.447 22.447 0 00-.832 3.172 34.302 34.302 0 00-.364 3.224 86.959 86.959 0 00-.052 2.808zm50.647-12.688l-6.76 6.24-2.912-3.484 10.244-8.476h4.42V296h-4.992v-31.096zm28.895 0l-6.76 6.24-2.912-3.484 10.244-8.476h4.42V296h-4.992v-31.096zm32.327 16.848h-.208c-1.144.555-2.496.832-4.056.832-1.318 0-2.652-.225-4.004-.676a11.149 11.149 0 01-3.692-2.08c-1.075-.971-1.959-2.184-2.652-3.64-.694-1.491-1.04-3.241-1.04-5.252 0-2.011.329-3.779.988-5.304.693-1.56 1.612-2.86 2.756-3.9a11.291 11.291 0 014.004-2.34c1.525-.555 3.154-.832 4.888-.832 1.733 0 3.362.277 4.888.832 1.525.555 2.86 1.352 4.004 2.392a11.284 11.284 0 012.704 3.744c.693 1.456 1.04 3.085 1.04 4.888 0 1.144-.087 2.184-.26 3.12a14.352 14.352 0 01-.78 2.704 20.05 20.05 0 01-1.144 2.496 41.26 41.26 0 01-1.508 2.548L393.612 296h-5.876l9.256-14.248zm4.628-11.18c0-1.109-.191-2.132-.572-3.068a6.244 6.244 0 00-1.56-2.392 6.783 6.783 0 00-2.392-1.612c-.936-.381-1.976-.572-3.12-.572-1.144 0-2.184.191-3.12.572a7.32 7.32 0 00-2.444 1.612c-.659.659-1.179 1.456-1.56 2.392-.347.936-.52 1.959-.52 3.068s.173 2.132.52 3.068a7.743 7.743 0 001.56 2.444 7.743 7.743 0 002.444 1.56c.936.381 1.976.572 3.12.572 1.144 0 2.184-.191 3.12-.572.936-.381 1.733-.901 2.392-1.56a6.713 6.713 0 001.56-2.444c.381-.936.572-1.959.572-3.068zm8.562 7.02c0-1.352.069-2.756.208-4.212a28.83 28.83 0 01.728-4.264 25.581 25.581 0 011.456-4.056c.624-1.283 1.404-2.392 2.34-3.328a10.789 10.789 0 013.38-2.288c1.317-.589 2.843-.884 4.576-.884 1.733 0 3.241.295 4.524.884 1.317.555 2.444 1.317 3.38 2.288a10.868 10.868 0 012.34 3.328 20.199 20.199 0 011.456 4.056c.381 1.387.641 2.808.78 4.264.139 1.456.208 2.86.208 4.212 0 1.941-.173 4.021-.52 6.24-.347 2.219-.988 4.281-1.924 6.188a12.961 12.961 0 01-3.9 4.732c-1.629 1.248-3.744 1.872-6.344 1.872s-4.732-.624-6.396-1.872c-1.629-1.248-2.912-2.825-3.848-4.732-.936-1.907-1.577-3.969-1.924-6.188s-.52-4.299-.52-6.24zm4.992 0c0 1.213.069 2.652.208 4.316.173 1.664.52 3.276 1.04 4.836.52 1.525 1.283 2.825 2.288 3.9 1.04 1.075 2.427 1.612 4.16 1.612s3.103-.537 4.108-1.612c1.04-1.075 1.82-2.375 2.34-3.9.52-1.56.849-3.172.988-4.836.173-1.664.26-3.103.26-4.316 0-.832-.035-1.768-.104-2.808a20.443 20.443 0 00-.364-3.224 18.385 18.385 0 00-.78-3.172c-.347-1.04-.815-1.959-1.404-2.756a6.285 6.285 0 00-2.08-1.976c-.832-.485-1.82-.728-2.964-.728s-2.132.243-2.964.728a6.789 6.789 0 00-2.132 1.976c-.555.797-1.005 1.716-1.352 2.756a22.312 22.312 0 00-.832 3.172 33.973 33.973 0 00-.364 3.224 84.168 84.168 0 00-.052 2.808zm39.607 4.16h-.208c-1.144.555-2.496.832-4.056.832-1.318 0-2.652-.225-4.004-.676a11.149 11.149 0 01-3.692-2.08c-1.075-.971-1.959-2.184-2.652-3.64-.694-1.491-1.04-3.241-1.04-5.252 0-2.011.329-3.779.988-5.304.693-1.56 1.612-2.86 2.756-3.9a11.291 11.291 0 014.004-2.34c1.525-.555 3.154-.832 4.888-.832 1.733 0 3.362.277 4.888.832 1.525.555 2.86 1.352 4.004 2.392a11.284 11.284 0 012.704 3.744c.693 1.456 1.04 3.085 1.04 4.888 0 1.144-.087 2.184-.26 3.12a14.352 14.352 0 01-.78 2.704 20.05 20.05 0 01-1.144 2.496 41.26 41.26 0 01-1.508 2.548L451.401 296h-5.876l9.256-14.248zm4.628-11.18c0-1.109-.191-2.132-.572-3.068a6.244 6.244 0 00-1.56-2.392 6.783 6.783 0 00-2.392-1.612c-.936-.381-1.976-.572-3.12-.572-1.144 0-2.184.191-3.12.572a7.32 7.32 0 00-2.444 1.612c-.659.659-1.179 1.456-1.56 2.392-.347.936-.52 1.959-.52 3.068s.173 2.132.52 3.068a7.743 7.743 0 001.56 2.444 7.743 7.743 0 002.444 1.56c.936.381 1.976.572 3.12.572 1.144 0 2.184-.191 3.12-.572.936-.381 1.733-.901 2.392-1.56a6.713 6.713 0 001.56-2.444c.381-.936.572-1.959.572-3.068zM87.003 348.54a6.74 6.74 0 00-2.08-1.716c-.797-.485-1.785-.728-2.964-.728-1.11 0-2.08.243-2.912.728-.797.451-1.196 1.127-1.196 2.028 0 .728.226 1.317.676 1.768a6 6 0 001.664 1.092c.659.277 1.352.485 2.08.624s1.352.26 1.872.364c1.006.243 1.942.537 2.808.884.902.347 1.664.797 2.288 1.352a5.468 5.468 0 011.508 2.028c.382.797.572 1.768.572 2.912 0 1.387-.294 2.583-.884 3.588a7.54 7.54 0 01-2.288 2.392c-.936.624-2.01 1.075-3.224 1.352a15.632 15.632 0 01-3.588.416c-2.045 0-3.848-.312-5.408-.936-1.525-.624-2.894-1.768-4.108-3.432l3.536-2.912a14.526 14.526 0 002.548 2.028c.936.589 2.08.884 3.432.884.59 0 1.179-.052 1.768-.156.624-.139 1.162-.329 1.612-.572.486-.277.867-.607 1.144-.988.312-.416.468-.884.468-1.404 0-.693-.225-1.265-.676-1.716a4.114 4.114 0 00-1.56-1.04 8.377 8.377 0 00-1.924-.624 30.95 30.95 0 00-1.768-.416 31.026 31.026 0 01-2.86-.832 8.692 8.692 0 01-2.392-1.248 5.768 5.768 0 01-1.664-1.976c-.416-.797-.624-1.785-.624-2.964 0-1.283.26-2.392.78-3.328a7.464 7.464 0 012.132-2.392 10.02 10.02 0 013.016-1.404 12.994 12.994 0 013.432-.468c1.664 0 3.259.312 4.784.936 1.526.624 2.739 1.664 3.64 3.12l-3.64 2.756zm13.538 7.852c0 1.075.225 2.063.676 2.964a7.748 7.748 0 001.872 2.236 8.534 8.534 0 002.652 1.456 9.493 9.493 0 003.12.52c1.456 0 2.721-.329 3.796-.988 1.074-.693 2.062-1.595 2.964-2.704l3.536 2.704c-2.6 3.363-6.24 5.044-10.92 5.044-1.942 0-3.71-.329-5.304-.988-1.56-.659-2.895-1.56-4.004-2.704a12.684 12.684 0 01-2.496-4.108c-.59-1.595-.884-3.311-.884-5.148 0-1.837.312-3.536.936-5.096.658-1.595 1.542-2.964 2.652-4.108a12.2 12.2 0 014.056-2.756c1.56-.659 3.258-.988 5.096-.988 2.184 0 4.021.381 5.512 1.144 1.525.763 2.773 1.768 3.744 3.016.97 1.213 1.664 2.6 2.08 4.16.45 1.525.676 3.085.676 4.68v1.664h-19.76zm14.768-3.744c-.035-1.04-.208-1.993-.52-2.86a5.775 5.775 0 00-1.3-2.236c-.59-.659-1.335-1.161-2.236-1.508-.867-.381-1.89-.572-3.068-.572-1.144 0-2.202.225-3.172.676a7.4 7.4 0 00-2.392 1.664 8.103 8.103 0 00-1.56 2.34 6.44 6.44 0 00-.52 2.496h14.768zm15.634-10.296v28.184c0 .624-.052 1.439-.156 2.444a7.434 7.434 0 01-.832 2.964c-.45.971-1.196 1.803-2.236 2.496-1.005.693-2.444 1.04-4.316 1.04-.52 0-1.022-.035-1.508-.104a7.375 7.375 0 01-1.508-.364l.52-4.316c.278.104.59.191.936.26.347.104.676.156.988.156 1.283 0 2.167-.416 2.652-1.248.52-.797.78-1.976.78-3.536v-27.976h4.68zm-5.772-8.84c0-.936.33-1.733.988-2.392.694-.693 1.508-1.04 2.444-1.04.936 0 1.734.347 2.392 1.04.694.659 1.04 1.456 1.04 2.392 0 .936-.346 1.751-1.04 2.444a3.256 3.256 0 01-2.392.988c-.936 0-1.75-.329-2.444-.988-.658-.693-.988-1.508-.988-2.444zm13.324 11.856a12.724 12.724 0 014.576-2.704c1.734-.624 3.467-.936 5.2-.936 1.803 0 3.346.225 4.628.676 1.318.451 2.392 1.057 3.224 1.82a6.872 6.872 0 011.82 2.652c.416.971.624 1.993.624 3.068v12.584c0 .867.018 1.664.052 2.392.035.728.087 1.421.156 2.08h-4.16a45.065 45.065 0 01-.156-3.744h-.104c-1.04 1.595-2.27 2.721-3.692 3.38-1.421.659-3.068.988-4.94.988a11.34 11.34 0 01-3.276-.468 8.292 8.292 0 01-2.756-1.404 6.93 6.93 0 01-1.82-2.288c-.45-.936-.676-2.011-.676-3.224 0-1.595.347-2.929 1.04-4.004.728-1.075 1.699-1.941 2.912-2.6 1.248-.693 2.687-1.179 4.316-1.456a28.762 28.762 0 015.304-.468h3.432v-1.04c0-.624-.121-1.248-.364-1.872a4.764 4.764 0 00-1.092-1.664c-.485-.52-1.092-.919-1.82-1.196-.728-.312-1.594-.468-2.6-.468-.901 0-1.698.087-2.392.26a9.442 9.442 0 00-1.82.676 7.207 7.207 0 00-1.508.884c-.45.347-.884.676-1.3.988l-2.808-2.912zm13.208 9.776c-1.109 0-2.253.069-3.432.208a12.851 12.851 0 00-3.172.676c-.936.347-1.716.832-2.34 1.456-.589.624-.884 1.421-.884 2.392 0 1.421.468 2.444 1.404 3.068.971.624 2.271.936 3.9.936 1.283 0 2.375-.208 3.276-.624.902-.451 1.63-1.023 2.184-1.716a6.564 6.564 0 001.196-2.288 9.413 9.413 0 00.364-2.548v-1.56h-2.496zm14.017-27.456h4.68V367h-4.68v-39.312zm12.129 0h4.68v18.2h.104c.832-1.283 2.028-2.288 3.588-3.016a11.212 11.212 0 014.992-1.144c1.906 0 3.622.329 5.148.988 1.56.659 2.877 1.577 3.951 2.756 1.11 1.144 1.959 2.513 2.549 4.108.589 1.56.884 3.259.884 5.096 0 1.837-.295 3.536-.884 5.096a12.242 12.242 0 01-2.549 4.108c-1.074 1.179-2.391 2.097-3.951 2.756-1.526.659-3.242.988-5.148.988-1.664 0-3.294-.364-4.888-1.092-1.56-.728-2.791-1.751-3.692-3.068h-.104V367h-4.68v-39.312zm12.792 35.568c1.248 0 2.374-.208 3.38-.624 1.005-.451 1.854-1.04 2.548-1.768a8.151 8.151 0 001.612-2.704c.381-1.075.572-2.236.572-3.484 0-1.248-.191-2.392-.572-3.432-.382-1.075-.919-1.976-1.612-2.704a7.02 7.02 0 00-2.548-1.768c-1.006-.451-2.132-.676-3.38-.676-1.248 0-2.375.225-3.38.676a7.002 7.002 0 00-2.548 1.768c-.694.728-1.231 1.629-1.612 2.704-.382 1.04-.572 2.184-.572 3.432 0 1.248.19 2.409.572 3.484a8.118 8.118 0 001.612 2.704c.693.728 1.542 1.317 2.548 1.768 1.005.416 2.132.624 3.38.624zm22.793-8.58c0 1.248.19 2.409.572 3.484a8.118 8.118 0 001.612 2.704c.693.728 1.542 1.317 2.548 1.768 1.005.416 2.132.624 3.38.624 1.248 0 2.374-.208 3.38-.624 1.005-.451 1.854-1.04 2.548-1.768a8.151 8.151 0 001.612-2.704c.381-1.075.572-2.236.572-3.484 0-1.248-.191-2.392-.572-3.432-.382-1.075-.919-1.976-1.612-2.704a7.02 7.02 0 00-2.548-1.768c-1.006-.451-2.132-.676-3.38-.676-1.248 0-2.375.225-3.38.676a7.002 7.002 0 00-2.548 1.768c-.694.728-1.231 1.629-1.612 2.704-.382 1.04-.572 2.184-.572 3.432zm-4.992 0c0-1.803.329-3.484.988-5.044a13.509 13.509 0 012.808-4.108 12.628 12.628 0 014.16-2.756c1.594-.693 3.31-1.04 5.148-1.04 1.837 0 3.553.347 5.148 1.04a12.648 12.648 0 014.16 2.756 12.801 12.801 0 012.756 4.108c.693 1.56 1.04 3.241 1.04 5.044 0 1.803-.347 3.501-1.04 5.096a12.801 12.801 0 01-2.756 4.108c-1.179 1.144-2.566 2.063-4.16 2.756-1.595.659-3.311.988-5.148.988-1.838 0-3.554-.329-5.148-.988-1.595-.693-2.982-1.612-4.16-2.756a13.509 13.509 0 01-2.808-4.108c-.659-1.595-.988-3.293-.988-5.096zm32.071-26.988h4.68v18.46h.104c.589-1.317 1.612-2.375 3.068-3.172 1.456-.832 3.137-1.248 5.044-1.248 1.178 0 2.305.191 3.38.572a7.169 7.169 0 012.86 1.664c.832.763 1.49 1.751 1.976 2.964.485 1.179.728 2.583.728 4.212V367h-4.68v-14.56c0-1.144-.156-2.115-.468-2.912-.312-.832-.728-1.491-1.248-1.976a4.278 4.278 0 00-1.82-1.092 5.962 5.962 0 00-2.08-.364c-.971 0-1.872.156-2.704.468a5.519 5.519 0 00-2.184 1.508c-.624.659-1.11 1.508-1.456 2.548-.347 1.04-.52 2.271-.52 3.692V367h-4.68v-39.312zm28.894 14.664h4.68v3.796h.104a6.29 6.29 0 011.248-1.768 8.208 8.208 0 011.716-1.404 8.93 8.93 0 012.132-.884 7.5 7.5 0 012.288-.364c.763 0 1.456.104 2.08.312l-.208 5.044a13.448 13.448 0 00-1.144-.26 6.414 6.414 0 00-1.144-.104c-2.288 0-4.039.641-5.252 1.924s-1.82 3.276-1.82 5.98V367h-4.68v-24.648zm19.35 3.016a12.724 12.724 0 014.576-2.704c1.734-.624 3.467-.936 5.2-.936 1.803 0 3.346.225 4.628.676 1.318.451 2.392 1.057 3.224 1.82a6.872 6.872 0 011.82 2.652c.416.971.624 1.993.624 3.068v12.584c0 .867.018 1.664.052 2.392.035.728.087 1.421.156 2.08h-4.16a45.065 45.065 0 01-.156-3.744h-.104c-1.04 1.595-2.27 2.721-3.692 3.38-1.421.659-3.068.988-4.94.988a11.34 11.34 0 01-3.276-.468 8.292 8.292 0 01-2.756-1.404 6.93 6.93 0 01-1.82-2.288c-.45-.936-.676-2.011-.676-3.224 0-1.595.347-2.929 1.04-4.004.728-1.075 1.699-1.941 2.912-2.6 1.248-.693 2.687-1.179 4.316-1.456a28.762 28.762 0 015.304-.468h3.432v-1.04c0-.624-.121-1.248-.364-1.872a4.764 4.764 0 00-1.092-1.664c-.485-.52-1.092-.919-1.82-1.196-.728-.312-1.594-.468-2.6-.468-.901 0-1.698.087-2.392.26a9.442 9.442 0 00-1.82.676 7.207 7.207 0 00-1.508.884c-.45.347-.884.676-1.3.988l-2.808-2.912zm13.208 9.776c-1.109 0-2.253.069-3.432.208a12.851 12.851 0 00-3.172.676c-.936.347-1.716.832-2.34 1.456-.589.624-.884 1.421-.884 2.392 0 1.421.468 2.444 1.404 3.068.971.624 2.271.936 3.9.936 1.283 0 2.375-.208 3.276-.624.902-.451 1.63-1.023 2.184-1.716a6.564 6.564 0 001.196-2.288 9.413 9.413 0 00.364-2.548v-1.56h-2.496zm32.061-13.364c-1.213 0-2.288.277-3.224.832-.936.52-1.733 1.248-2.392 2.184-.624.901-1.109 1.941-1.456 3.12a13.577 13.577 0 00-.468 3.588c0 1.283.277 2.305.832 3.068.589.728 1.543 1.092 2.86 1.092 1.04 0 1.993-.295 2.86-.884a8.982 8.982 0 002.288-2.288 11.234 11.234 0 001.456-2.964c.347-1.109.52-2.167.52-3.172 0-1.213-.277-2.271-.832-3.172-.52-.936-1.335-1.404-2.444-1.404zm5.668 11.336c-.173.589-.26 1.023-.26 1.3 0 .832.503 1.248 1.508 1.248.728 0 1.473-.26 2.236-.78.763-.555 1.439-1.3 2.028-2.236.624-.936 1.127-2.011 1.508-3.224.416-1.248.624-2.565.624-3.952 0-2.045-.364-3.848-1.092-5.408-.728-1.595-1.716-2.929-2.964-4.004-1.248-1.109-2.704-1.941-4.368-2.496-1.629-.589-3.363-.884-5.2-.884-2.219 0-4.264.416-6.136 1.248a14.625 14.625 0 00-4.836 3.432c-1.352 1.421-2.409 3.103-3.172 5.044-.763 1.941-1.144 4.039-1.144 6.292 0 2.288.399 4.403 1.196 6.344.797 1.941 1.889 3.623 3.276 5.044a15.945 15.945 0 004.94 3.276c1.907.763 3.952 1.144 6.136 1.144 2.496 0 4.819-.451 6.968-1.352 2.184-.901 3.9-2.201 5.148-3.9h4.108a14.029 14.029 0 01-2.86 3.588 17.56 17.56 0 01-3.9 2.756 23.091 23.091 0 01-4.628 1.716 19.892 19.892 0 01-4.94.624c-2.739 0-5.304-.503-7.696-1.508-2.357-1.005-4.42-2.375-6.188-4.108-1.733-1.768-3.103-3.831-4.108-6.188-1.005-2.392-1.508-4.94-1.508-7.644 0-2.669.503-5.165 1.508-7.488 1.04-2.357 2.427-4.403 4.16-6.136a20.063 20.063 0 016.136-4.108c2.357-1.005 4.853-1.508 7.488-1.508 2.427 0 4.715.399 6.864 1.196 2.149.797 4.021 1.907 5.616 3.328a15.094 15.094 0 013.848 4.992c.936 1.907 1.404 4.004 1.404 6.292 0 2.219-.416 4.229-1.248 6.032-.797 1.803-1.82 3.345-3.068 4.628-1.213 1.283-2.531 2.271-3.952 2.964-1.421.693-2.739 1.04-3.952 1.04-.901 0-1.664-.277-2.288-.832-.624-.589-.953-1.421-.988-2.496h-.208c-.797.832-1.751 1.595-2.86 2.288a6.648 6.648 0 01-3.588 1.04c-1.109 0-2.115-.208-3.016-.624a7.429 7.429 0 01-2.236-1.768 8.626 8.626 0 01-1.404-2.548 10.819 10.819 0 01-.468-3.224c0-1.699.277-3.38.832-5.044.555-1.664 1.335-3.137 2.34-4.42a11.803 11.803 0 013.64-3.172c1.456-.797 3.068-1.196 4.836-1.196 1.213 0 2.323.312 3.328.936 1.005.589 1.751 1.595 2.236 3.016h.104l.832-2.964h3.796l-4.368 14.404zM381.908 367h-4.68v-3.536h-.104c-.901 1.317-2.149 2.34-3.744 3.068a11.314 11.314 0 01-4.836 1.092c-1.907 0-3.64-.329-5.2-.988a11.77 11.77 0 01-3.952-2.756 12.674 12.674 0 01-2.496-4.108c-.589-1.56-.884-3.259-.884-5.096 0-1.837.295-3.536.884-5.096.589-1.595 1.421-2.964 2.496-4.108a11.77 11.77 0 013.952-2.756c1.56-.659 3.293-.988 5.2-.988 1.768 0 3.432.381 4.992 1.144 1.56.728 2.756 1.733 3.588 3.016h.104v-18.2h4.68V367zm-12.792-3.744c1.248 0 2.375-.208 3.38-.624 1.005-.451 1.855-1.04 2.548-1.768a8.134 8.134 0 001.612-2.704c.381-1.075.572-2.236.572-3.484 0-1.248-.191-2.392-.572-3.432-.381-1.075-.919-1.976-1.612-2.704a7.01 7.01 0 00-2.548-1.768c-1.005-.451-2.132-.676-3.38-.676-1.248 0-2.375.225-3.38.676a7.01 7.01 0 00-2.548 1.768c-.693.728-1.231 1.629-1.612 2.704-.381 1.04-.572 2.184-.572 3.432 0 1.248.191 2.409.572 3.484a8.134 8.134 0 001.612 2.704c.693.728 1.543 1.317 2.548 1.768 1.005.416 2.132.624 3.38.624zM410.837 367h-4.68v-3.796h-.104c-.589 1.317-1.612 2.392-3.068 3.224-1.456.797-3.137 1.196-5.044 1.196-1.213 0-2.357-.191-3.432-.572a7.665 7.665 0 01-2.86-1.664c-.797-.763-1.439-1.733-1.924-2.912-.485-1.213-.728-2.635-.728-4.264v-15.86h4.68v14.56c0 1.144.156 2.132.468 2.964.312.797.728 1.456 1.248 1.976.52.485 1.109.849 1.768 1.092a7.378 7.378 0 002.132.312c.971 0 1.872-.156 2.704-.468a5.759 5.759 0 002.184-1.456c.624-.693 1.109-1.56 1.456-2.6s.52-2.271.52-3.692v-12.688h4.68V367zm7.158-21.632a12.724 12.724 0 014.576-2.704c1.734-.624 3.467-.936 5.2-.936 1.803 0 3.346.225 4.628.676 1.318.451 2.392 1.057 3.224 1.82a6.872 6.872 0 011.82 2.652c.416.971.624 1.993.624 3.068v12.584c0 .867.018 1.664.052 2.392.035.728.087 1.421.156 2.08h-4.16a45.065 45.065 0 01-.156-3.744h-.104c-1.04 1.595-2.27 2.721-3.692 3.38-1.421.659-3.068.988-4.94.988a11.34 11.34 0 01-3.276-.468 8.292 8.292 0 01-2.756-1.404 6.93 6.93 0 01-1.82-2.288c-.45-.936-.676-2.011-.676-3.224 0-1.595.347-2.929 1.04-4.004.728-1.075 1.699-1.941 2.912-2.6 1.248-.693 2.687-1.179 4.316-1.456a28.762 28.762 0 015.304-.468h3.432v-1.04c0-.624-.121-1.248-.364-1.872a4.764 4.764 0 00-1.092-1.664c-.485-.52-1.092-.919-1.82-1.196-.728-.312-1.594-.468-2.6-.468-.901 0-1.698.087-2.392.26a9.442 9.442 0 00-1.82.676 7.207 7.207 0 00-1.508.884c-.45.347-.884.676-1.3.988l-2.808-2.912zm13.208 9.776c-1.109 0-2.253.069-3.432.208a12.851 12.851 0 00-3.172.676c-.936.347-1.716.832-2.34 1.456-.589.624-.884 1.421-.884 2.392 0 1.421.468 2.444 1.404 3.068.971.624 2.271.936 3.9.936 1.283 0 2.375-.208 3.276-.624.902-.451 1.63-1.023 2.184-1.716a6.564 6.564 0 001.196-2.288 9.413 9.413 0 00.364-2.548v-1.56h-2.496zm14.017-27.456h4.68V367h-4.68v-39.312zm12.493 14.664h4.68V367h-4.68v-24.648zm-1.092-8.84c0-.936.329-1.733.988-2.392.693-.693 1.508-1.04 2.444-1.04.936 0 1.733.347 2.392 1.04.693.659 1.04 1.456 1.04 2.392 0 .936-.347 1.751-1.04 2.444a3.257 3.257 0 01-2.392.988c-.936 0-1.751-.329-2.444-.988-.659-.693-.988-1.508-.988-2.444zm26.428 12.896h-6.708v11.18c0 .693.017 1.387.052 2.08.034.659.156 1.265.364 1.82.242.52.589.953 1.04 1.3.485.312 1.178.468 2.08.468a9.88 9.88 0 001.716-.156 4.974 4.974 0 001.612-.572v4.264c-.555.312-1.283.52-2.184.624-.867.139-1.543.208-2.028.208-1.803 0-3.207-.243-4.212-.728-.971-.52-1.699-1.179-2.184-1.976a6.79 6.79 0 01-.832-2.652 43.406 43.406 0 01-.104-3.016v-12.844h-5.408v-4.056h5.408v-6.916h4.68v6.916h6.708v4.056zm9.574 9.984c0 1.075.225 2.063.676 2.964a7.748 7.748 0 001.872 2.236 8.534 8.534 0 002.652 1.456 9.493 9.493 0 003.12.52c1.456 0 2.721-.329 3.796-.988 1.074-.693 2.062-1.595 2.964-2.704l3.536 2.704c-2.6 3.363-6.24 5.044-10.92 5.044-1.942 0-3.71-.329-5.304-.988-1.56-.659-2.895-1.56-4.004-2.704a12.674 12.674 0 01-2.496-4.108c-.59-1.595-.884-3.311-.884-5.148 0-1.837.312-3.536.936-5.096.658-1.595 1.542-2.964 2.652-4.108a12.197 12.197 0 014.056-2.756c1.56-.659 3.258-.988 5.096-.988 2.184 0 4.021.381 5.512 1.144 1.525.763 2.773 1.768 3.744 3.016.97 1.213 1.664 2.6 2.08 4.16.45 1.525.676 3.085.676 4.68v1.664h-19.76zm14.768-3.744c-.035-1.04-.208-1.993-.52-2.86a5.775 5.775 0 00-1.3-2.236c-.59-.659-1.335-1.161-2.236-1.508-.867-.381-1.89-.572-3.068-.572-1.144 0-2.202.225-3.172.676a7.4 7.4 0 00-2.392 1.664 8.103 8.103 0 00-1.56 2.34 6.44 6.44 0 00-.52 2.496h14.768zm14.282 14.664c-.936 0-1.75-.329-2.444-.988-.658-.693-.988-1.508-.988-2.444 0-.936.33-1.733.988-2.392.694-.693 1.508-1.04 2.444-1.04.936 0 1.734.347 2.392 1.04.694.659 1.04 1.456 1.04 2.392 0 .936-.346 1.751-1.04 2.444a3.256 3.256 0 01-2.392.988zm11.145-24.96h4.68V367h-4.68v-24.648zm-1.092-8.84c0-.936.329-1.733.988-2.392.693-.693 1.508-1.04 2.444-1.04.936 0 1.733.347 2.392 1.04.693.659 1.04 1.456 1.04 2.392 0 .936-.347 1.751-1.04 2.444a3.257 3.257 0 01-2.392.988c-.936 0-1.751-.329-2.444-.988-.659-.693-.988-1.508-.988-2.444zm13.22 8.84h4.68v3.796h.104c.589-1.317 1.612-2.375 3.068-3.172 1.456-.832 3.137-1.248 5.044-1.248 1.179 0 2.305.191 3.38.572 1.109.347 2.063.901 2.86 1.664.832.763 1.491 1.751 1.976 2.964.485 1.179.728 2.583.728 4.212V367h-4.68v-14.56c0-1.144-.156-2.115-.468-2.912-.312-.832-.728-1.491-1.248-1.976a4.278 4.278 0 00-1.82-1.092 5.962 5.962 0 00-2.08-.364c-.971 0-1.872.156-2.704.468a5.519 5.519 0 00-2.184 1.508c-.624.659-1.109 1.508-1.456 2.548s-.52 2.271-.52 3.692V367h-4.68v-24.648zM86.587 401.184h4.992v26.312c0 2.323-.364 4.229-1.092 5.72-.728 1.456-1.646 2.617-2.756 3.484-1.074.832-2.236 1.404-3.484 1.716-1.248.347-2.392.52-3.432.52-2.6 0-4.801-.659-6.604-1.976-1.768-1.352-2.894-3.38-3.38-6.084l4.888-1.092c.278 1.387.85 2.479 1.716 3.276.867.797 1.994 1.196 3.38 1.196 1.248 0 2.236-.243 2.964-.728a5.073 5.073 0 001.768-1.872c.416-.797.694-1.699.832-2.704.139-1.005.208-2.028.208-3.068v-24.7zm16.194 24.492c0 1.248.191 2.409.572 3.484a8.151 8.151 0 001.612 2.704c.694.728 1.543 1.317 2.548 1.768 1.006.416 2.132.624 3.38.624 1.248 0 2.375-.208 3.38-.624 1.006-.451 1.855-1.04 2.548-1.768a8.118 8.118 0 001.612-2.704c.382-1.075.572-2.236.572-3.484 0-1.248-.19-2.392-.572-3.432-.381-1.075-.918-1.976-1.612-2.704a7.002 7.002 0 00-2.548-1.768c-1.005-.451-2.132-.676-3.38-.676-1.248 0-2.374.225-3.38.676a7.02 7.02 0 00-2.548 1.768c-.693.728-1.23 1.629-1.612 2.704-.381 1.04-.572 2.184-.572 3.432zm-4.992 0c0-1.803.33-3.484.988-5.044a13.533 13.533 0 012.808-4.108 12.648 12.648 0 014.16-2.756c1.595-.693 3.311-1.04 5.148-1.04 1.838 0 3.554.347 5.148 1.04a12.628 12.628 0 014.16 2.756 12.769 12.769 0 012.756 4.108c.694 1.56 1.04 3.241 1.04 5.044 0 1.803-.346 3.501-1.04 5.096a12.769 12.769 0 01-2.756 4.108c-1.178 1.144-2.565 2.063-4.16 2.756-1.594.659-3.31.988-5.148.988-1.837 0-3.553-.329-5.148-.988-1.594-.693-2.981-1.612-4.16-2.756a13.533 13.533 0 01-2.808-4.108c-.658-1.595-.988-3.293-.988-5.096zM154.56 438h-4.68v-3.536h-.104c-.901 1.317-2.149 2.34-3.744 3.068a11.314 11.314 0 01-4.836 1.092c-1.906 0-3.64-.329-5.2-.988a11.779 11.779 0 01-3.952-2.756 12.709 12.709 0 01-2.496-4.108c-.589-1.56-.884-3.259-.884-5.096 0-1.837.295-3.536.884-5.096.59-1.595 1.422-2.964 2.496-4.108a11.779 11.779 0 013.952-2.756c1.56-.659 3.294-.988 5.2-.988 1.768 0 3.432.381 4.992 1.144 1.56.728 2.756 1.733 3.588 3.016h.104v-18.2h4.68V438zm-12.792-3.744c1.248 0 2.375-.208 3.38-.624 1.006-.451 1.855-1.04 2.548-1.768a8.118 8.118 0 001.612-2.704c.382-1.075.572-2.236.572-3.484 0-1.248-.19-2.392-.572-3.432-.381-1.075-.918-1.976-1.612-2.704a7.002 7.002 0 00-2.548-1.768c-1.005-.451-2.132-.676-3.38-.676-1.248 0-2.374.225-3.38.676a7.02 7.02 0 00-2.548 1.768c-.693.728-1.23 1.629-1.612 2.704-.381 1.04-.572 2.184-.572 3.432 0 1.248.191 2.409.572 3.484a8.151 8.151 0 001.612 2.704c.694.728 1.543 1.317 2.548 1.768 1.006.416 2.132.624 3.38.624zm19.881-35.568h4.68v18.46h.104c.59-1.317 1.612-2.375 3.068-3.172 1.456-.832 3.138-1.248 5.044-1.248 1.179 0 2.306.191 3.38.572 1.11.347 2.063.901 2.86 1.664.832.763 1.491 1.751 1.976 2.964.486 1.179.728 2.583.728 4.212V438h-4.68v-14.56c0-1.144-.156-2.115-.468-2.912-.312-.832-.728-1.491-1.248-1.976a4.272 4.272 0 00-1.82-1.092 5.958 5.958 0 00-2.08-.364c-.97 0-1.872.156-2.704.468a5.519 5.519 0 00-2.184 1.508c-.624.659-1.109 1.508-1.456 2.548-.346 1.04-.52 2.271-.52 3.692V438h-4.68v-39.312zm28.895 14.664h4.68v3.536h.104c.901-1.317 2.132-2.34 3.692-3.068 1.594-.728 3.224-1.092 4.888-1.092 1.906 0 3.622.329 5.148.988 1.56.659 2.877 1.577 3.952 2.756 1.109 1.179 1.958 2.565 2.548 4.16.589 1.56.884 3.241.884 5.044 0 1.837-.295 3.553-.884 5.148a12.255 12.255 0 01-2.548 4.108c-1.075 1.144-2.392 2.045-3.952 2.704-1.526.659-3.242.988-5.148.988a11.66 11.66 0 01-4.992-1.092c-1.56-.763-2.756-1.785-3.588-3.068h-.104v18.2h-4.68v-39.312zm12.792 3.744c-1.248 0-2.375.225-3.38.676a7.002 7.002 0 00-2.548 1.768c-.694.728-1.231 1.629-1.612 2.704-.382 1.04-.572 2.184-.572 3.432 0 1.248.19 2.409.572 3.484a8.118 8.118 0 001.612 2.704c.693.728 1.542 1.317 2.548 1.768 1.005.416 2.132.624 3.38.624 1.248 0 2.374-.208 3.38-.624 1.005-.451 1.854-1.04 2.548-1.768a8.151 8.151 0 001.612-2.704c.381-1.075.572-2.236.572-3.484 0-1.248-.191-2.392-.572-3.432-.382-1.075-.919-1.976-1.612-2.704a7.02 7.02 0 00-2.548-1.768c-1.006-.451-2.132-.676-3.38-.676zM244.173 438h-4.68v-3.796h-.104c-.589 1.317-1.612 2.392-3.068 3.224-1.456.797-3.137 1.196-5.044 1.196-1.213 0-2.357-.191-3.432-.572a7.665 7.665 0 01-2.86-1.664c-.797-.763-1.439-1.733-1.924-2.912-.485-1.213-.728-2.635-.728-4.264v-15.86h4.68v14.56c0 1.144.156 2.132.468 2.964.312.797.728 1.456 1.248 1.976.52.485 1.109.849 1.768 1.092a7.378 7.378 0 002.132.312c.971 0 1.872-.156 2.704-.468a5.759 5.759 0 002.184-1.456c.624-.693 1.109-1.56 1.456-2.6s.52-2.271.52-3.692v-12.688h4.68V438zm7.054-24.648h4.68v3.796h.104a6.29 6.29 0 011.248-1.768 8.208 8.208 0 011.716-1.404 8.948 8.948 0 012.132-.884 7.504 7.504 0 012.288-.364c.763 0 1.456.104 2.08.312l-.208 5.044a13.362 13.362 0 00-1.144-.26 6.405 6.405 0 00-1.144-.104c-2.288 0-4.038.641-5.252 1.924-1.213 1.283-1.82 3.276-1.82 5.98V438h-4.68v-24.648zM98.599 509h-4.68v-3.536h-.104c-.901 1.317-2.15 2.34-3.744 3.068a11.314 11.314 0 01-4.836 1.092c-1.906 0-3.64-.329-5.2-.988a11.768 11.768 0 01-3.952-2.756 12.684 12.684 0 01-2.496-4.108c-.59-1.56-.884-3.259-.884-5.096 0-1.837.295-3.536.884-5.096.59-1.595 1.422-2.964 2.496-4.108a11.768 11.768 0 013.952-2.756c1.56-.659 3.294-.988 5.2-.988 1.768 0 3.432.381 4.992 1.144 1.56.728 2.756 1.733 3.588 3.016h.104v-18.2h4.68V509zm-12.792-3.744c1.248 0 2.375-.208 3.38-.624 1.006-.451 1.855-1.04 2.548-1.768a8.136 8.136 0 001.612-2.704c.382-1.075.572-2.236.572-3.484 0-1.248-.19-2.392-.572-3.432-.381-1.075-.918-1.976-1.612-2.704a7.011 7.011 0 00-2.548-1.768c-1.005-.451-2.132-.676-3.38-.676-1.248 0-2.374.225-3.38.676a7.01 7.01 0 00-2.548 1.768c-.693.728-1.23 1.629-1.612 2.704-.381 1.04-.572 2.184-.572 3.432 0 1.248.19 2.409.572 3.484a8.133 8.133 0 001.612 2.704c.694.728 1.543 1.317 2.548 1.768 1.006.416 2.132.624 3.38.624zM127.528 509h-4.68v-3.796h-.104c-.589 1.317-1.612 2.392-3.068 3.224-1.456.797-3.137 1.196-5.044 1.196-1.213 0-2.357-.191-3.432-.572a7.673 7.673 0 01-2.86-1.664c-.797-.763-1.438-1.733-1.924-2.912-.485-1.213-.728-2.635-.728-4.264v-15.86h4.68v14.56c0 1.144.156 2.132.468 2.964.312.797.728 1.456 1.248 1.976.52.485 1.11.849 1.768 1.092a7.383 7.383 0 002.132.312c.971 0 1.872-.156 2.704-.468a5.759 5.759 0 002.184-1.456c.624-.693 1.11-1.56 1.456-2.6.347-1.04.52-2.271.52-3.692v-12.688h4.68V509zm7.159-21.632a12.715 12.715 0 014.576-2.704c1.733-.624 3.467-.936 5.2-.936 1.803 0 3.345.225 4.628.676 1.317.451 2.392 1.057 3.224 1.82a6.872 6.872 0 011.82 2.652c.416.971.624 1.993.624 3.068v12.584c0 .867.017 1.664.052 2.392.035.728.087 1.421.156 2.08h-4.16a45.065 45.065 0 01-.156-3.744h-.104c-1.04 1.595-2.271 2.721-3.692 3.38-1.421.659-3.068.988-4.94.988a11.34 11.34 0 01-3.276-.468 8.282 8.282 0 01-2.756-1.404 6.917 6.917 0 01-1.82-2.288c-.451-.936-.676-2.011-.676-3.224 0-1.595.347-2.929 1.04-4.004.728-1.075 1.699-1.941 2.912-2.6 1.248-.693 2.687-1.179 4.316-1.456a28.762 28.762 0 015.304-.468h3.432v-1.04c0-.624-.121-1.248-.364-1.872a4.792 4.792 0 00-1.092-1.664c-.485-.52-1.092-.919-1.82-1.196-.728-.312-1.595-.468-2.6-.468-.901 0-1.699.087-2.392.26a9.417 9.417 0 00-1.82.676 7.182 7.182 0 00-1.508.884c-.451.347-.884.676-1.3.988l-2.808-2.912zm13.208 9.776c-1.109 0-2.253.069-3.432.208a12.851 12.851 0 00-3.172.676c-.936.347-1.716.832-2.34 1.456-.589.624-.884 1.421-.884 2.392 0 1.421.468 2.444 1.404 3.068.971.624 2.271.936 3.9.936 1.283 0 2.375-.208 3.276-.624.901-.451 1.629-1.023 2.184-1.716a6.581 6.581 0 001.196-2.288 9.413 9.413 0 00.364-2.548v-1.56h-2.496zm14.017-27.456h4.68V509h-4.68v-39.312zm12.492 14.664h4.68V509h-4.68v-24.648zm-1.092-8.84c0-.936.329-1.733.988-2.392.693-.693 1.508-1.04 2.444-1.04.936 0 1.733.347 2.392 1.04.693.659 1.04 1.456 1.04 2.392 0 .936-.347 1.751-1.04 2.444a3.257 3.257 0 01-2.392.988c-.936 0-1.751-.329-2.444-.988-.659-.693-.988-1.508-.988-2.444zm26.428 12.896h-6.708v11.18c0 .693.017 1.387.052 2.08.035.659.156 1.265.364 1.82.243.52.589.953 1.04 1.3.485.312 1.179.468 2.08.468.555 0 1.127-.052 1.716-.156a4.966 4.966 0 001.612-.572v4.264c-.555.312-1.283.52-2.184.624-.867.139-1.543.208-2.028.208-1.803 0-3.207-.243-4.212-.728-.971-.52-1.699-1.179-2.184-1.976a6.79 6.79 0 01-.832-2.652 44.035 44.035 0 01-.104-3.016v-12.844h-5.408v-4.056h5.408v-6.916h4.68v6.916h6.708v4.056zm9.574 9.984c0 1.075.226 2.063.676 2.964a7.78 7.78 0 001.872 2.236 8.556 8.556 0 002.652 1.456 9.501 9.501 0 003.12.52c1.456 0 2.722-.329 3.796-.988 1.075-.693 2.063-1.595 2.964-2.704l3.536 2.704c-2.6 3.363-6.24 5.044-10.92 5.044-1.941 0-3.709-.329-5.304-.988-1.56-.659-2.894-1.56-4.004-2.704a12.709 12.709 0 01-2.496-4.108c-.589-1.595-.884-3.311-.884-5.148 0-1.837.312-3.536.936-5.096.659-1.595 1.543-2.964 2.652-4.108a12.197 12.197 0 014.056-2.756c1.56-.659 3.259-.988 5.096-.988 2.184 0 4.022.381 5.512 1.144 1.526.763 2.774 1.768 3.744 3.016a11.187 11.187 0 012.08 4.16c.451 1.525.676 3.085.676 4.68v1.664h-19.76zm14.768-3.744c-.034-1.04-.208-1.993-.52-2.86a5.75 5.75 0 00-1.3-2.236c-.589-.659-1.334-1.161-2.236-1.508-.866-.381-1.889-.572-3.068-.572-1.144 0-2.201.225-3.172.676a7.41 7.41 0 00-2.392 1.664 8.144 8.144 0 00-1.56 2.34 6.458 6.458 0 00-.52 2.496h14.768zm14.283 14.664c-.936 0-1.751-.329-2.444-.988-.659-.693-.988-1.508-.988-2.444 0-.936.329-1.733.988-2.392.693-.693 1.508-1.04 2.444-1.04.936 0 1.733.347 2.392 1.04.693.659 1.04 1.456 1.04 2.392 0 .936-.347 1.751-1.04 2.444a3.257 3.257 0 01-2.392.988zm11.144-24.96h4.68V509h-4.68v-24.648zm-1.092-8.84c0-.936.33-1.733.988-2.392.694-.693 1.508-1.04 2.444-1.04.936 0 1.734.347 2.392 1.04.694.659 1.04 1.456 1.04 2.392 0 .936-.346 1.751-1.04 2.444a3.256 3.256 0 01-2.392.988c-.936 0-1.75-.329-2.444-.988-.658-.693-.988-1.508-.988-2.444zm13.221 8.84h4.68v3.796h.104c.589-1.317 1.612-2.375 3.068-3.172 1.456-.832 3.137-1.248 5.044-1.248 1.178 0 2.305.191 3.38.572a7.169 7.169 0 012.86 1.664c.832.763 1.49 1.751 1.976 2.964.485 1.179.728 2.583.728 4.212V509h-4.68v-14.56c0-1.144-.156-2.115-.468-2.912-.312-.832-.728-1.491-1.248-1.976a4.278 4.278 0 00-1.82-1.092 5.962 5.962 0 00-2.08-.364c-.971 0-1.872.156-2.704.468a5.519 5.519 0 00-2.184 1.508c-.624.659-1.11 1.508-1.456 2.548-.347 1.04-.52 2.271-.52 3.692V509h-4.68v-24.648z" fill="#000"/></svg>